<svg width="74" height="74" viewBox="0 0 74 74" fill="none" xmlns="http://www.w3.org/2000/svg">
<g clip-path="url(#clip0_1673_90)">
<path d="M74 37C74 16.5655 57.4345 0 37 0C16.5655 0 0 16.5655 0 37C0 57.4345 16.5655 74 37 74C57.4345 74 74 57.4345 74 37Z" fill="#67CE67"/>
<path d="M29.1172 45.0781C34.0039 49.9648 40.1035 53.8145 45.1309 53.8145C47.4336 53.8145 49.4023 53.0234 51.0195 51.2832C51.916 50.334 52.584 49.1035 52.584 47.9258C52.584 47.082 52.2676 46.2734 51.4062 45.6758L46.0449 41.8965C45.3066 41.3867 44.6562 41.1055 44.041 41.1055C43.25 41.1055 42.5117 41.5273 41.7031 42.3184L40.4199 43.5664C40.2266 43.7598 39.998 43.8301 39.752 43.8301C39.5059 43.8301 39.2773 43.7422 39.084 43.6543C38.0469 43.1094 36.1484 41.6152 34.373 39.8223C32.5801 38.0293 31.0508 36.166 30.541 35.0938C30.4531 34.9004 30.3652 34.6719 30.3652 34.4609C30.3652 34.2324 30.4355 34.0215 30.6289 33.8281L31.877 32.5098C32.6504 31.666 33.0723 30.9277 33.0723 30.1543C33.0723 29.5215 32.8086 28.8711 32.2812 28.1328L28.5898 22.9121C27.9746 22.0508 27.1133 21.6641 26.1641 21.6641C25.0566 21.6641 23.8613 22.209 22.8418 23.2109C21.1543 24.8457 20.416 26.8672 20.416 29.0996C20.416 34.127 24.2129 40.1738 29.1172 45.0781Z" fill="white"/>
</g>
<defs>
<clipPath id="clip0_1673_90">
<rect width="74" height="74" fill="white"/>
</clipPath>
</defs>
</svg>
