<svg width="74" height="74" viewBox="0 0 74 74" fill="none" xmlns="http://www.w3.org/2000/svg">
<g clip-path="url(#clip0_1673_86)">
<path d="M74 37C74 16.5655 57.4345 0 37 0C16.5655 0 0 16.5655 0 37C0 57.4345 16.5655 74 37 74C57.4345 74 74 57.4345 74 37Z" fill="#EB5545"/>
<path d="M36.5 29.8555C29.1348 29.873 22.1035 31.4551 18.5352 35.0234C16.918 36.6406 16.0918 38.5918 16.1621 40.9473C16.2148 42.2656 16.584 43.6016 17.4277 44.4453C18.0078 45.043 18.834 45.377 19.8535 45.2012L26.3398 44.0938C27.2012 43.9355 27.8516 43.6543 28.3086 43.2148C28.8711 42.6875 29.082 41.8438 29.082 40.7012L29.1172 38.9258C29.1172 38.6445 29.2227 38.4336 29.3984 38.2578C29.5566 38.0645 29.8027 37.9766 29.9961 37.9238C31.1211 37.625 33.5293 37.3086 36.5 37.3086C39.4707 37.3086 41.8613 37.5547 43.0039 37.9414C43.1973 37.9941 43.4082 38.0996 43.5664 38.2578C43.7422 38.416 43.8301 38.6094 43.8301 38.873L43.8828 40.7012C43.918 41.8438 44.1465 42.6699 44.6914 43.2148C45.1484 43.6719 45.7988 43.9355 46.6777 44.0938L52.9707 45.166C54.043 45.3594 54.9219 44.9902 55.5898 44.3398C56.3633 43.5488 56.8203 42.3184 56.8379 40.877C56.873 38.5215 55.9766 36.5879 54.3945 35.0234C50.8262 31.4551 43.8652 29.8379 36.5 29.8555Z" fill="white"/>
</g>
<defs>
<clipPath id="clip0_1673_86">
<rect width="74" height="74" fill="white"/>
</clipPath>
</defs>
</svg>
